<svg xmlns="http://www.w3.org/2000/svg" width="150" height="18.964" viewBox="0 0 150 18.964">
  <g id="logo" transform="translate(-160.848 -70.518)">
    <g id="Grupo_379" data-name="Grupo 379">
      <path id="Caminho_558" data-name="Caminho 558" d="M171.068,83.6c-.08,0-.133-.053-.213-.186l-7.314-10.666-.027,9.575c-.027,6.544,1.489,6.65,2.793,6.65h.372a.121.121,0,1,1,0,.24c-.771.026-3.112-.08-3.511-.08s-1.41.08-2.154.08c-.187,0-.213-.24.026-.24h.16c1.2-.026,1.942-.346,1.968-6.65,0-3.032.027-7.66.027-9.176a1.723,1.723,0,0,0-.346-1.144A2.557,2.557,0,0,0,161.12,71h-.133c-.186,0-.186-.213,0-.213a18.768,18.768,0,0,0,3.4-.186.266.266,0,0,1,.266.16c.186.346.691,1.117,1.064,1.649l6.41,9.443,5.4-8.406c1.223-1.942,1.6-2.846,2.1-2.846.4,0,2.633.186,3.085.186.213,0,.213.24,0,.24h-.4c-1.3,0-1.436.106-1.436,6.65v4.654c0,6.544.133,6.65,1.436,6.65h.4c.213,0,.213.24,0,.24-.744,0-2.473-.08-2.846-.08-.4,0-2.234.08-2.979.08-.213,0-.213-.24,0-.24h.532c1.3,0,1.437-.106,1.437-6.65V72.911c0-1.037-.266-.478-1.038.692l-6.277,9.815c-.08.133-.133.186-.24.186Z" fill="#363636"/>
      <path id="Caminho_559" data-name="Caminho 559" d="M218.1,70.518a9.387,9.387,0,0,1,9.362,9.5,9.515,9.515,0,0,1-9.522,9.469,9.483,9.483,0,0,1,.16-18.964Zm-.266,18.7c4.335,0,7.261-3.751,7.261-9.2,0-5.479-2.553-9.23-6.889-9.23-4.362,0-7.155,3.751-7.155,9.23C211.054,85.466,213.5,89.217,217.837,89.217Z" fill="#363636"/>
      <path id="Caminho_560" data-name="Caminho 560" d="M229.942,71c-.186,0-.186-.213,0-.213,2.767,0,3.777-.106,3.964-.106a.267.267,0,0,1,.266.16,10.182,10.182,0,0,0,1.037,1.409L246.274,86V77.673c0-6.544-1.755-6.65-3.032-6.65h-.372c-.213,0-.213-.24,0-.24.771,0,3.165.08,3.564.08.372,0,1.3-.08,2.075-.08.212,0,.212.24,0,.24h-.187c-1.3,0-1.7.106-1.7,6.65V89.03c0,.16-.027.266-.213.266-.159,0-.452-.292-.665-.585l-12.82-15.986-.027,9.6c0,6.544,1.489,6.65,2.793,6.65h.372a.121.121,0,1,1,0,.24c-.771.026-3.112-.08-3.511-.08s-1.41.08-2.155.08c-.186,0-.212-.24.027-.24h.16c1.2-.026,1.941-.346,1.968-6.65l.027-9.549a1.277,1.277,0,0,0-.426-.824,2.749,2.749,0,0,0-2.1-.958Z" fill="#363636"/>
      <path id="Caminho_561" data-name="Caminho 561" d="M273.064,71.209c.186.053.266.08.293.292.053.533-.16,2.288-.16,6.491,0,.345-.266.345-.266,0,.053-4.1-.692-7.209-5.666-7.209-3.245,0-4.548,1.517-4.548,3.538,0,2.554,2.739,3.644,5.479,4.815,2.767,1.143,5.559,2.367,5.559,5.239,0,3.059-2.606,5.107-5.8,5.107a20.653,20.653,0,0,1-6.2-.8c-.239-.054-.266-.107-.266-.266,0-1.224-.026-5.506-.026-6.81,0-.372.292-.372.292,0,0,4.948,1.782,7.608,6.2,7.608,2.926,0,4.2-1.49,4.2-3.591,0-2.607-2.66-3.671-5.373-4.815-2.846-1.17-5.746-2.42-5.746-5.24,0-3.165,2.846-5.053,6.224-5.053A23.361,23.361,0,0,1,273.064,71.209Z" fill="#363636"/>
      <path id="Caminho_562" data-name="Caminho 562" d="M280.7,79.508h2.208c3.324,0,4.043-1.223,4.043-3.059V75.89a.135.135,0,1,1,.266,0c0,.772-.133,3.379-.133,3.778,0,.372.133,3.245.133,3.644a.135.135,0,1,1-.266,0v-.4c0-1.836-.719-3.086-4.043-3.086H280.7v5.107a24.12,24.12,0,0,1-.213,3.91c.771,0,4.2.08,5.028.08,3.085,0,5.266-2.66,5.612-5.373l.16-1.41c.026-.159.319-.159.292.027l-.16,1.436c-.478,4.336-.638,5.347-.824,5.506a22.764,22.764,0,0,1-3.538.107c-1.861,0-6.729-.08-6.729-.08l-3.751.08c-.266,0-.266-.187,0-.187,1.543,0,1.782-.186,1.995-3.537.133-1.836.107-5.373.107-7.82,0-6.544-.239-6.65-1.543-6.65h-.479c-.213,0-.213-.24,0-.24.745,0,2.554.08,2.953.08.372,0,8.4-.08,9.362-.08a4.768,4.768,0,0,1,1.251.107,39.31,39.31,0,0,1,.771,4.894l.106.958c.053.186-.212.159-.265,0l-.134-.958a5.309,5.309,0,0,0-5.612-4.681H281.71c-1.223,0-1.01.026-1.01,6.57Z" fill="#363636"/>
      <path id="Caminho_563" data-name="Caminho 563" d="M303.817,82.327c0,6.544.134,6.65,1.436,6.65h.48c.213,0,.213.24,0,.24-.745,0-2.554-.08-2.926-.08-.4,0-2.208.08-2.953.08-.212,0-.212-.24,0-.24h.479c1.3,0,1.437-.106,1.437-6.65V70.757c-.745.026-1.57.026-2.182.026-2.846,0-3.856,1.969-4.389,5.427l-.212,1.516c-.053.159-.319.186-.266,0l.213-1.516c.372-2.873.133-5.427.292-5.506a17.116,17.116,0,0,1,3.245-.186c.665,0,3.139.053,4.309.053s1.6-.053,4.283-.053h.026a17.108,17.108,0,0,1,3.245.186c.16.079-.079,2.633.319,5.506l.187,1.516c.053.186-.187.159-.24,0l-.239-1.516c-.533-3.458-1.543-5.427-4.415-5.453h-2.129Z" fill="#363636"/>
      <path id="Caminho_564" data-name="Caminho 564" d="M202.888,86.483a9.357,9.357,0,0,0,.793-.9,9.49,9.49,0,0,1-13.3-13.3,9.33,9.33,0,0,0-.9.792,9.483,9.483,0,0,0,13.41,13.41Z" fill="#363636"/>
    </g>
    <g id="Grupo_380" data-name="Grupo 380">
      <path id="Caminho_565" data-name="Caminho 565" d="M202.553,77.628h0c-.749-.153-1.074-.544-1.206-1.469-.131.925-.456,1.316-1.205,1.47h0a1.407,1.407,0,0,1,1.212,1.355A1.4,1.4,0,0,1,202.553,77.628Z" fill="#363636"/>
      <path id="Caminho_566" data-name="Caminho 566" d="M198.9,76.5c.02.195.14.2.163.2s.146-.011.167-.212c.151-1.447.551-2.038,1.53-2.261a.254.254,0,0,0,0-.47c-.979-.222-1.361-.792-1.515-2.257a.191.191,0,1,0-.381,0c-.153,1.466-.534,2.036-1.513,2.258a.254.254,0,0,0,0,.47C198.348,74.454,198.753,75.047,198.9,76.5Zm-1.286-2.5c.833-.253,1.248-.81,1.441-1.946.194,1.136.609,1.693,1.443,1.945a2.025,2.025,0,0,0-1.434,1.82A2.033,2.033,0,0,0,197.619,73.994Z" fill="#363636"/>
      <path id="Caminho_567" data-name="Caminho 567" d="M197.533,76.062h0c-.552-.112-.792-.4-.889-1.082-.1.682-.337.97-.889,1.083h0a1.036,1.036,0,0,1,.894,1A1.031,1.031,0,0,1,197.533,76.062Z" fill="#363636"/>
    </g>
  </g>
</svg>
